<mxfile host="app.diagrams.net" modified="2022-05-01T19:52:01.083Z" agent="5.0 (Windows NT 10.0; Win64; x64) AppleWebKit/537.36 (KHTML, like Gecko) Chrome/100.0.4896.127 Safari/537.36" etag="FaGlKS-CL5uvuU1ocfMs" version="17.5.0" type="github">
  <diagram id="EM5_igrRlN2taPJDVNh_" name="Page-1">
    <mxGraphModel dx="1210" dy="526" grid="1" gridSize="10" guides="1" tooltips="1" connect="1" arrows="1" fold="1" page="1" pageScale="1" pageWidth="2339" pageHeight="3300" math="0" shadow="0">
      <root>
        <mxCell id="0" />
        <mxCell id="1" parent="0" />
        <mxCell id="KR1GkTAf5l48vpQYUQlL-1" style="edgeStyle=orthogonalEdgeStyle;rounded=0;orthogonalLoop=1;jettySize=auto;html=1;entryX=0.5;entryY=0;entryDx=0;entryDy=0;fontSize=9;endArrow=none;endFill=0;" parent="1" source="KR1GkTAf5l48vpQYUQlL-2" target="KR1GkTAf5l48vpQYUQlL-5" edge="1">
          <mxGeometry relative="1" as="geometry" />
        </mxCell>
        <mxCell id="KR1GkTAf5l48vpQYUQlL-2" value="Alumno" style="rounded=0;whiteSpace=wrap;html=1;fillColor=#dae8fc;strokeColor=#6c8ebf;" parent="1" vertex="1">
          <mxGeometry x="870" y="703" width="120" height="60" as="geometry" />
        </mxCell>
        <mxCell id="KR1GkTAf5l48vpQYUQlL-3" value="Materia" style="rounded=0;whiteSpace=wrap;html=1;fillColor=#dae8fc;strokeColor=#6c8ebf;" parent="1" vertex="1">
          <mxGeometry x="1097" y="943" width="120" height="60" as="geometry" />
        </mxCell>
        <mxCell id="KR1GkTAf5l48vpQYUQlL-4" style="edgeStyle=orthogonalEdgeStyle;rounded=0;orthogonalLoop=1;jettySize=auto;html=1;fontSize=9;endArrow=none;endFill=0;entryX=0.008;entryY=0.133;entryDx=0;entryDy=0;entryPerimeter=0;" parent="1" source="KR1GkTAf5l48vpQYUQlL-5" target="KR1GkTAf5l48vpQYUQlL-3" edge="1">
          <mxGeometry relative="1" as="geometry">
            <mxPoint x="930" y="943" as="targetPoint" />
            <Array as="points">
              <mxPoint x="930" y="951" />
            </Array>
          </mxGeometry>
        </mxCell>
        <mxCell id="KR1GkTAf5l48vpQYUQlL-5" value="Tomar치" style="rhombus;whiteSpace=wrap;html=1;fillColor=#e1d5e7;strokeColor=#9673a6;" parent="1" vertex="1">
          <mxGeometry x="875" y="823" width="110" height="80" as="geometry" />
        </mxCell>
        <mxCell id="KR1GkTAf5l48vpQYUQlL-6" style="edgeStyle=orthogonalEdgeStyle;rounded=0;orthogonalLoop=1;jettySize=auto;html=1;fontSize=9;endArrow=none;endFill=0;" parent="1" edge="1">
          <mxGeometry relative="1" as="geometry">
            <mxPoint x="1220" y="951" as="targetPoint" />
            <mxPoint x="1370" y="901" as="sourcePoint" />
            <Array as="points">
              <mxPoint x="1370" y="951" />
            </Array>
          </mxGeometry>
        </mxCell>
        <mxCell id="KR1GkTAf5l48vpQYUQlL-7" value="Dar치" style="rhombus;whiteSpace=wrap;html=1;fillColor=#e1d5e7;strokeColor=#9673a6;" parent="1" vertex="1">
          <mxGeometry x="1315" y="823" width="110" height="80" as="geometry" />
        </mxCell>
        <mxCell id="KR1GkTAf5l48vpQYUQlL-20" value="Profesor" style="rounded=0;whiteSpace=wrap;html=1;fillColor=#dae8fc;strokeColor=#6c8ebf;" parent="1" vertex="1">
          <mxGeometry x="1310" y="703" width="120" height="60" as="geometry" />
        </mxCell>
        <mxCell id="KR1GkTAf5l48vpQYUQlL-21" value="id" style="ellipse;whiteSpace=wrap;html=1;fillColor=#e1d5e7;strokeColor=#9673a6;" parent="1" vertex="1">
          <mxGeometry x="1200" y="683" width="60" height="40" as="geometry" />
        </mxCell>
        <mxCell id="KR1GkTAf5l48vpQYUQlL-22" value="Nombre" style="ellipse;whiteSpace=wrap;html=1;" parent="1" vertex="1">
          <mxGeometry x="1230" y="643" width="60" height="40" as="geometry" />
        </mxCell>
        <mxCell id="KR1GkTAf5l48vpQYUQlL-23" value="Apellido paterno" style="ellipse;whiteSpace=wrap;html=1;" parent="1" vertex="1">
          <mxGeometry x="1365" y="603" width="60" height="40" as="geometry" />
        </mxCell>
        <mxCell id="KR1GkTAf5l48vpQYUQlL-24" value="&lt;font style=&quot;font-size: 11px&quot;&gt;Correo electr칩nico&lt;/font&gt;" style="ellipse;whiteSpace=wrap;html=1;" parent="1" vertex="1">
          <mxGeometry x="1480" y="670" width="60" height="40" as="geometry" />
        </mxCell>
        <mxCell id="KR1GkTAf5l48vpQYUQlL-27" value="" style="endArrow=none;html=1;rounded=0;fontSize=8;exitX=1;exitY=0.25;exitDx=0;exitDy=0;" parent="1" source="KR1GkTAf5l48vpQYUQlL-20" edge="1">
          <mxGeometry width="50" height="50" relative="1" as="geometry">
            <mxPoint x="1381.21" y="703" as="sourcePoint" />
            <mxPoint x="1490" y="700" as="targetPoint" />
          </mxGeometry>
        </mxCell>
        <mxCell id="KR1GkTAf5l48vpQYUQlL-28" value="" style="endArrow=none;html=1;rounded=0;fontSize=8;exitX=0.5;exitY=0;exitDx=0;exitDy=0;entryX=0.5;entryY=1;entryDx=0;entryDy=0;" parent="1" source="KR1GkTAf5l48vpQYUQlL-20" target="KR1GkTAf5l48vpQYUQlL-23" edge="1">
          <mxGeometry width="50" height="50" relative="1" as="geometry">
            <mxPoint x="1370" y="693" as="sourcePoint" />
            <mxPoint x="1360" y="633" as="targetPoint" />
          </mxGeometry>
        </mxCell>
        <mxCell id="KR1GkTAf5l48vpQYUQlL-29" value="" style="endArrow=none;html=1;rounded=0;fontSize=8;entryX=0.967;entryY=0.8;entryDx=0;entryDy=0;entryPerimeter=0;" parent="1" target="KR1GkTAf5l48vpQYUQlL-22" edge="1">
          <mxGeometry width="50" height="50" relative="1" as="geometry">
            <mxPoint x="1321" y="703" as="sourcePoint" />
            <mxPoint x="1310" y="644" as="targetPoint" />
          </mxGeometry>
        </mxCell>
        <mxCell id="KR1GkTAf5l48vpQYUQlL-30" value="" style="endArrow=none;html=1;rounded=0;fontSize=8;entryX=1;entryY=0.5;entryDx=0;entryDy=0;" parent="1" target="KR1GkTAf5l48vpQYUQlL-21" edge="1">
          <mxGeometry width="50" height="50" relative="1" as="geometry">
            <mxPoint x="1310" y="713" as="sourcePoint" />
            <mxPoint x="1277.02" y="675" as="targetPoint" />
          </mxGeometry>
        </mxCell>
        <mxCell id="KR1GkTAf5l48vpQYUQlL-34" value="Id" style="ellipse;whiteSpace=wrap;html=1;fillColor=#e1d5e7;strokeColor=#9673a6;" parent="1" vertex="1">
          <mxGeometry x="976" y="1038" width="60" height="40" as="geometry" />
        </mxCell>
        <mxCell id="KR1GkTAf5l48vpQYUQlL-35" value="Nombre" style="ellipse;whiteSpace=wrap;html=1;" parent="1" vertex="1">
          <mxGeometry x="1030" y="1063" width="60" height="40" as="geometry" />
        </mxCell>
        <mxCell id="KR1GkTAf5l48vpQYUQlL-36" value="Horas" style="ellipse;whiteSpace=wrap;html=1;" parent="1" vertex="1">
          <mxGeometry x="1094" y="1073" width="60" height="40" as="geometry" />
        </mxCell>
        <mxCell id="KR1GkTAf5l48vpQYUQlL-37" value="&lt;font style=&quot;font-size: 9px&quot;&gt;Calificaci칩n menor aprobatoria&lt;/font&gt;" style="ellipse;whiteSpace=wrap;html=1;" parent="1" vertex="1">
          <mxGeometry x="1157" y="1073" width="60" height="40" as="geometry" />
        </mxCell>
        <mxCell id="KR1GkTAf5l48vpQYUQlL-38" value="alumno_id" style="ellipse;whiteSpace=wrap;html=1;fillColor=#d5e8d4;strokeColor=#82b366;" parent="1" vertex="1">
          <mxGeometry x="1217" y="1063" width="60" height="40" as="geometry" />
        </mxCell>
        <mxCell id="KR1GkTAf5l48vpQYUQlL-39" value="Profesor_id" style="ellipse;whiteSpace=wrap;html=1;fillColor=#d5e8d4;strokeColor=#82b366;" parent="1" vertex="1">
          <mxGeometry x="1270" y="1038" width="60" height="40" as="geometry" />
        </mxCell>
        <mxCell id="KR1GkTAf5l48vpQYUQlL-44" value="" style="endArrow=none;html=1;rounded=0;fontSize=8;entryX=0;entryY=1;entryDx=0;entryDy=0;exitX=0.967;exitY=0.2;exitDx=0;exitDy=0;exitPerimeter=0;" parent="1" target="KR1GkTAf5l48vpQYUQlL-3" edge="1">
          <mxGeometry width="50" height="50" relative="1" as="geometry">
            <mxPoint x="1030" y="1043" as="sourcePoint" />
            <mxPoint x="1128.98" y="1020" as="targetPoint" />
          </mxGeometry>
        </mxCell>
        <mxCell id="KR1GkTAf5l48vpQYUQlL-45" value="" style="endArrow=none;html=1;rounded=0;fontSize=8;exitX=0.967;exitY=0.2;exitDx=0;exitDy=0;exitPerimeter=0;" parent="1" edge="1">
          <mxGeometry width="50" height="50" relative="1" as="geometry">
            <mxPoint x="1070" y="1063" as="sourcePoint" />
            <mxPoint x="1120" y="1003" as="targetPoint" />
          </mxGeometry>
        </mxCell>
        <mxCell id="KR1GkTAf5l48vpQYUQlL-46" value="" style="endArrow=none;html=1;rounded=0;fontSize=8;exitX=0.967;exitY=0.2;exitDx=0;exitDy=0;exitPerimeter=0;" parent="1" edge="1">
          <mxGeometry width="50" height="50" relative="1" as="geometry">
            <mxPoint x="1125" y="1073" as="sourcePoint" />
            <mxPoint x="1150" y="1003" as="targetPoint" />
          </mxGeometry>
        </mxCell>
        <mxCell id="KR1GkTAf5l48vpQYUQlL-47" value="" style="endArrow=none;html=1;rounded=0;fontSize=8;exitX=0.967;exitY=0.2;exitDx=0;exitDy=0;exitPerimeter=0;" parent="1" edge="1">
          <mxGeometry width="50" height="50" relative="1" as="geometry">
            <mxPoint x="1190" y="1073" as="sourcePoint" />
            <mxPoint x="1180" y="1003" as="targetPoint" />
          </mxGeometry>
        </mxCell>
        <mxCell id="KR1GkTAf5l48vpQYUQlL-48" value="" style="endArrow=none;html=1;rounded=0;fontSize=8;exitX=0.967;exitY=0.2;exitDx=0;exitDy=0;exitPerimeter=0;" parent="1" edge="1">
          <mxGeometry width="50" height="50" relative="1" as="geometry">
            <mxPoint x="1239.96" y="1063" as="sourcePoint" />
            <mxPoint x="1200" y="1003" as="targetPoint" />
          </mxGeometry>
        </mxCell>
        <mxCell id="KR1GkTAf5l48vpQYUQlL-49" value="" style="endArrow=none;html=1;rounded=0;fontSize=8;exitX=0.967;exitY=0.2;exitDx=0;exitDy=0;exitPerimeter=0;entryX=1;entryY=1;entryDx=0;entryDy=0;" parent="1" target="KR1GkTAf5l48vpQYUQlL-3" edge="1">
          <mxGeometry width="50" height="50" relative="1" as="geometry">
            <mxPoint x="1279.98" y="1043" as="sourcePoint" />
            <mxPoint x="1240.02" y="983" as="targetPoint" />
          </mxGeometry>
        </mxCell>
        <mxCell id="KR1GkTAf5l48vpQYUQlL-52" style="edgeStyle=orthogonalEdgeStyle;rounded=0;orthogonalLoop=1;jettySize=auto;html=1;entryX=0.5;entryY=0;entryDx=0;entryDy=0;fontSize=9;endArrow=none;endFill=0;" parent="1" edge="1">
          <mxGeometry relative="1" as="geometry">
            <mxPoint x="1369" y="763" as="sourcePoint" />
            <mxPoint x="1369" y="823" as="targetPoint" />
            <Array as="points">
              <mxPoint x="1369" y="783" />
              <mxPoint x="1369" y="783" />
            </Array>
          </mxGeometry>
        </mxCell>
        <mxCell id="KR1GkTAf5l48vpQYUQlL-53" value="&lt;font style=&quot;font-size: 11px&quot;&gt;Direcci칩n_id&lt;/font&gt;" style="ellipse;whiteSpace=wrap;html=1;fillColor=#d5e8d4;strokeColor=#82b366;" parent="1" vertex="1">
          <mxGeometry x="1432" y="626" width="60" height="40" as="geometry" />
        </mxCell>
        <mxCell id="KR1GkTAf5l48vpQYUQlL-54" value="" style="endArrow=none;html=1;rounded=0;fontSize=8;exitX=0.894;exitY=0.013;exitDx=0;exitDy=0;exitPerimeter=0;" parent="1" source="KR1GkTAf5l48vpQYUQlL-20" edge="1">
          <mxGeometry width="50" height="50" relative="1" as="geometry">
            <mxPoint x="1400" y="703" as="sourcePoint" />
            <mxPoint x="1440" y="660" as="targetPoint" />
          </mxGeometry>
        </mxCell>
        <mxCell id="KR1GkTAf5l48vpQYUQlL-55" value="Apellido materno" style="ellipse;whiteSpace=wrap;html=1;" parent="1" vertex="1">
          <mxGeometry x="1290" y="603" width="60" height="40" as="geometry" />
        </mxCell>
        <mxCell id="KR1GkTAf5l48vpQYUQlL-56" value="" style="endArrow=none;html=1;rounded=0;fontSize=8;exitX=0.25;exitY=0;exitDx=0;exitDy=0;entryX=1;entryY=1;entryDx=0;entryDy=0;" parent="1" source="KR1GkTAf5l48vpQYUQlL-20" target="KR1GkTAf5l48vpQYUQlL-55" edge="1">
          <mxGeometry width="50" height="50" relative="1" as="geometry">
            <mxPoint x="1330" y="703" as="sourcePoint" />
            <mxPoint x="1316" y="633" as="targetPoint" />
          </mxGeometry>
        </mxCell>
        <mxCell id="KR1GkTAf5l48vpQYUQlL-72" value="Nombre" style="ellipse;whiteSpace=wrap;html=1;fillColor=#FFFFFF;strokeColor=#000000;" parent="1" vertex="1">
          <mxGeometry x="753" y="683" width="60" height="40" as="geometry" />
        </mxCell>
        <mxCell id="KR1GkTAf5l48vpQYUQlL-73" value="Apellido materno" style="ellipse;whiteSpace=wrap;html=1;" parent="1" vertex="1">
          <mxGeometry x="783" y="643" width="60" height="40" as="geometry" />
        </mxCell>
        <mxCell id="KR1GkTAf5l48vpQYUQlL-74" value="&lt;font style=&quot;font-size: 10px&quot;&gt;Direcci칩n_id&lt;/font&gt;" style="ellipse;whiteSpace=wrap;html=1;fillColor=#d5e8d4;strokeColor=#82b366;" parent="1" vertex="1">
          <mxGeometry x="879" y="590" width="60" height="40" as="geometry" />
        </mxCell>
        <mxCell id="KR1GkTAf5l48vpQYUQlL-75" value="&lt;font style=&quot;font-size: 9px&quot;&gt;Fecha nacimiento_id&lt;/font&gt;" style="ellipse;whiteSpace=wrap;html=1;fillColor=#d5e8d4;strokeColor=#82b366;" parent="1" vertex="1">
          <mxGeometry x="1003" y="613" width="60" height="40" as="geometry" />
        </mxCell>
        <mxCell id="KR1GkTAf5l48vpQYUQlL-76" value="&lt;font style=&quot;font-size: 11px&quot;&gt;Grado&lt;/font&gt;" style="ellipse;whiteSpace=wrap;html=1;" parent="1" vertex="1">
          <mxGeometry x="1047" y="650" width="60" height="40" as="geometry" />
        </mxCell>
        <mxCell id="KR1GkTAf5l48vpQYUQlL-78" value="" style="endArrow=none;html=1;rounded=0;fontSize=8;entryX=0.5;entryY=1;entryDx=0;entryDy=0;exitX=0.842;exitY=0;exitDx=0;exitDy=0;exitPerimeter=0;" parent="1" target="KR1GkTAf5l48vpQYUQlL-75" edge="1">
          <mxGeometry width="50" height="50" relative="1" as="geometry">
            <mxPoint x="964.04" y="703" as="sourcePoint" />
            <mxPoint x="982.9967965644037" y="667.142135623731" as="targetPoint" />
          </mxGeometry>
        </mxCell>
        <mxCell id="KR1GkTAf5l48vpQYUQlL-79" value="" style="endArrow=none;html=1;rounded=0;fontSize=8;exitX=0.5;exitY=0;exitDx=0;exitDy=0;" parent="1" edge="1">
          <mxGeometry width="50" height="50" relative="1" as="geometry">
            <mxPoint x="923" y="703" as="sourcePoint" />
            <mxPoint x="913" y="633" as="targetPoint" />
          </mxGeometry>
        </mxCell>
        <mxCell id="KR1GkTAf5l48vpQYUQlL-80" value="" style="endArrow=none;html=1;rounded=0;fontSize=8;entryX=0.967;entryY=0.8;entryDx=0;entryDy=0;entryPerimeter=0;" parent="1" target="KR1GkTAf5l48vpQYUQlL-73" edge="1">
          <mxGeometry width="50" height="50" relative="1" as="geometry">
            <mxPoint x="874" y="703" as="sourcePoint" />
            <mxPoint x="863" y="644" as="targetPoint" />
          </mxGeometry>
        </mxCell>
        <mxCell id="KR1GkTAf5l48vpQYUQlL-81" value="" style="endArrow=none;html=1;rounded=0;fontSize=8;entryX=1;entryY=0.5;entryDx=0;entryDy=0;exitX=0;exitY=0.25;exitDx=0;exitDy=0;" parent="1" source="KR1GkTAf5l48vpQYUQlL-2" target="KR1GkTAf5l48vpQYUQlL-72" edge="1">
          <mxGeometry width="50" height="50" relative="1" as="geometry">
            <mxPoint x="863" y="713" as="sourcePoint" />
            <mxPoint x="830.02" y="675" as="targetPoint" />
          </mxGeometry>
        </mxCell>
        <mxCell id="KR1GkTAf5l48vpQYUQlL-82" value="" style="endArrow=none;html=1;rounded=0;fontSize=8;entryX=0;entryY=1;entryDx=0;entryDy=0;exitX=1;exitY=0.25;exitDx=0;exitDy=0;" parent="1" source="KR1GkTAf5l48vpQYUQlL-2" target="KR1GkTAf5l48vpQYUQlL-76" edge="1">
          <mxGeometry width="50" height="50" relative="1" as="geometry">
            <mxPoint x="983" y="718.8600000000001" as="sourcePoint" />
            <mxPoint x="1031.7867965644036" y="683.002135623731" as="targetPoint" />
          </mxGeometry>
        </mxCell>
        <mxCell id="KR1GkTAf5l48vpQYUQlL-83" value="&lt;font style=&quot;font-size: 12px&quot;&gt;Curp&lt;/font&gt;" style="ellipse;whiteSpace=wrap;html=1;fillColor=#FFFFFF;strokeColor=#000000;" parent="1" vertex="1">
          <mxGeometry x="943" y="593" width="60" height="40" as="geometry" />
        </mxCell>
        <mxCell id="KR1GkTAf5l48vpQYUQlL-84" value="" style="endArrow=none;html=1;rounded=0;fontSize=8;entryX=0.5;entryY=1;entryDx=0;entryDy=0;exitX=0.842;exitY=0;exitDx=0;exitDy=0;exitPerimeter=0;" parent="1" target="KR1GkTAf5l48vpQYUQlL-83" edge="1">
          <mxGeometry width="50" height="50" relative="1" as="geometry">
            <mxPoint x="953" y="703" as="sourcePoint" />
            <mxPoint x="1021.96" y="653" as="targetPoint" />
          </mxGeometry>
        </mxCell>
        <mxCell id="KR1GkTAf5l48vpQYUQlL-85" value="Apellido paterno" style="ellipse;whiteSpace=wrap;html=1;" parent="1" vertex="1">
          <mxGeometry x="817" y="604" width="60" height="40" as="geometry" />
        </mxCell>
        <mxCell id="KR1GkTAf5l48vpQYUQlL-86" value="" style="endArrow=none;html=1;rounded=0;fontSize=8;exitX=0.25;exitY=0;exitDx=0;exitDy=0;entryX=1;entryY=1;entryDx=0;entryDy=0;" parent="1" target="KR1GkTAf5l48vpQYUQlL-85" edge="1">
          <mxGeometry width="50" height="50" relative="1" as="geometry">
            <mxPoint x="893" y="703" as="sourcePoint" />
            <mxPoint x="869" y="633" as="targetPoint" />
          </mxGeometry>
        </mxCell>
        <mxCell id="KR1GkTAf5l48vpQYUQlL-87" value="" style="endArrow=none;html=1;rounded=0;fontSize=8;exitX=1;exitY=0.5;exitDx=0;exitDy=0;" parent="1" edge="1">
          <mxGeometry width="50" height="50" relative="1" as="geometry">
            <mxPoint x="990" y="736" as="sourcePoint" />
            <mxPoint x="1050" y="723" as="targetPoint" />
          </mxGeometry>
        </mxCell>
        <mxCell id="KR1GkTAf5l48vpQYUQlL-88" value="&lt;font style=&quot;font-size: 9px&quot;&gt;Fecha inscripci칩n_id&lt;/font&gt;" style="ellipse;whiteSpace=wrap;html=1;fillColor=#d5e8d4;strokeColor=#82b366;" parent="1" vertex="1">
          <mxGeometry x="1047" y="703" width="60" height="40" as="geometry" />
        </mxCell>
        <mxCell id="KR1GkTAf5l48vpQYUQlL-89" value="" style="endArrow=none;html=1;rounded=0;fontSize=8;exitX=1;exitY=0.5;exitDx=0;exitDy=0;" parent="1" edge="1">
          <mxGeometry width="50" height="50" relative="1" as="geometry">
            <mxPoint x="990" y="756" as="sourcePoint" />
            <mxPoint x="1050" y="760" as="targetPoint" />
          </mxGeometry>
        </mxCell>
        <mxCell id="KR1GkTAf5l48vpQYUQlL-90" value="&lt;font style=&quot;font-size: 12px&quot;&gt;medio_id&lt;/font&gt;" style="ellipse;whiteSpace=wrap;html=1;fillColor=#d5e8d4;strokeColor=#82b366;" parent="1" vertex="1">
          <mxGeometry x="1047" y="750" width="60" height="40" as="geometry" />
        </mxCell>
        <mxCell id="KR1GkTAf5l48vpQYUQlL-91" value="&lt;font style=&quot;font-size: 12px&quot;&gt;Id&lt;/font&gt;" style="ellipse;whiteSpace=wrap;html=1;fillColor=#e1d5e7;strokeColor=#9673a6;" parent="1" vertex="1">
          <mxGeometry x="753" y="730" width="60" height="40" as="geometry" />
        </mxCell>
        <mxCell id="KR1GkTAf5l48vpQYUQlL-92" value="" style="endArrow=none;html=1;rounded=0;fontSize=8;exitX=1;exitY=0.5;exitDx=0;exitDy=0;entryX=0;entryY=0.5;entryDx=0;entryDy=0;" parent="1" target="KR1GkTAf5l48vpQYUQlL-2" edge="1">
          <mxGeometry width="50" height="50" relative="1" as="geometry">
            <mxPoint x="810" y="743" as="sourcePoint" />
            <mxPoint x="870" y="747" as="targetPoint" />
          </mxGeometry>
        </mxCell>
        <mxCell id="KR1GkTAf5l48vpQYUQlL-93" style="edgeStyle=orthogonalEdgeStyle;rounded=0;orthogonalLoop=1;jettySize=auto;html=1;fontSize=11;endArrow=none;endFill=0;" parent="1" source="KR1GkTAf5l48vpQYUQlL-94" edge="1">
          <mxGeometry relative="1" as="geometry">
            <mxPoint x="1716" y="870" as="targetPoint" />
          </mxGeometry>
        </mxCell>
        <mxCell id="KR1GkTAf5l48vpQYUQlL-94" value="Tener" style="rhombus;whiteSpace=wrap;html=1;fillColor=#e1d5e7;strokeColor=#9673a6;" parent="1" vertex="1">
          <mxGeometry x="1671" y="780" width="90" height="60" as="geometry" />
        </mxCell>
        <mxCell id="KR1GkTAf5l48vpQYUQlL-95" value="Direcci칩n" style="rounded=0;whiteSpace=wrap;html=1;fillColor=#dae8fc;strokeColor=#6c8ebf;" parent="1" vertex="1">
          <mxGeometry x="1656" y="870" width="120" height="60" as="geometry" />
        </mxCell>
        <mxCell id="KR1GkTAf5l48vpQYUQlL-96" value="Id" style="ellipse;whiteSpace=wrap;html=1;fillColor=#e1d5e7;strokeColor=#9673a6;" parent="1" vertex="1">
          <mxGeometry x="1510" y="890" width="60" height="40" as="geometry" />
        </mxCell>
        <mxCell id="KR1GkTAf5l48vpQYUQlL-97" value="Calle" style="ellipse;whiteSpace=wrap;html=1;" parent="1" vertex="1">
          <mxGeometry x="1526" y="940" width="60" height="40" as="geometry" />
        </mxCell>
        <mxCell id="KR1GkTAf5l48vpQYUQlL-98" value="n칰mero" style="ellipse;whiteSpace=wrap;html=1;" parent="1" vertex="1">
          <mxGeometry x="1796" y="960" width="60" height="40" as="geometry" />
        </mxCell>
        <mxCell id="KR1GkTAf5l48vpQYUQlL-99" value="colonia" style="ellipse;whiteSpace=wrap;html=1;" parent="1" vertex="1">
          <mxGeometry x="1846" y="920" width="60" height="40" as="geometry" />
        </mxCell>
        <mxCell id="KR1GkTAf5l48vpQYUQlL-100" value="" style="endArrow=none;html=1;rounded=0;fontSize=8;entryX=1;entryY=0.5;entryDx=0;entryDy=0;" parent="1" source="KR1GkTAf5l48vpQYUQlL-95" edge="1">
          <mxGeometry width="50" height="50" relative="1" as="geometry">
            <mxPoint x="1620" y="915" as="sourcePoint" />
            <mxPoint x="1570" y="905" as="targetPoint" />
          </mxGeometry>
        </mxCell>
        <mxCell id="KR1GkTAf5l48vpQYUQlL-101" value="" style="endArrow=none;html=1;rounded=0;fontSize=8;entryX=1;entryY=0.5;entryDx=0;entryDy=0;exitX=0;exitY=0.75;exitDx=0;exitDy=0;" parent="1" source="KR1GkTAf5l48vpQYUQlL-95" edge="1">
          <mxGeometry width="50" height="50" relative="1" as="geometry">
            <mxPoint x="1671" y="950.0047945205479" as="sourcePoint" />
            <mxPoint x="1585" y="952.95" as="targetPoint" />
          </mxGeometry>
        </mxCell>
        <mxCell id="KR1GkTAf5l48vpQYUQlL-102" value="" style="endArrow=none;html=1;rounded=0;fontSize=8;exitX=1;exitY=1;exitDx=0;exitDy=0;entryX=0;entryY=0;entryDx=0;entryDy=0;" parent="1" source="KR1GkTAf5l48vpQYUQlL-95" target="KR1GkTAf5l48vpQYUQlL-98" edge="1">
          <mxGeometry width="50" height="50" relative="1" as="geometry">
            <mxPoint x="1796" y="905" as="sourcePoint" />
            <mxPoint x="1836" y="955" as="targetPoint" />
          </mxGeometry>
        </mxCell>
        <mxCell id="KR1GkTAf5l48vpQYUQlL-103" value="" style="endArrow=none;html=1;rounded=0;fontSize=8;exitX=1;exitY=0.75;exitDx=0;exitDy=0;entryX=0;entryY=0.279;entryDx=0;entryDy=0;entryPerimeter=0;" parent="1" source="KR1GkTAf5l48vpQYUQlL-95" target="KR1GkTAf5l48vpQYUQlL-99" edge="1">
          <mxGeometry width="50" height="50" relative="1" as="geometry">
            <mxPoint x="1816" y="870" as="sourcePoint" />
            <mxPoint x="1856" y="920" as="targetPoint" />
          </mxGeometry>
        </mxCell>
        <mxCell id="KR1GkTAf5l48vpQYUQlL-104" value="Direcci칩n Primaria" style="rounded=0;whiteSpace=wrap;html=1;fillColor=#dae8fc;strokeColor=#6c8ebf;" parent="1" vertex="1">
          <mxGeometry x="1656" y="1090" width="120" height="60" as="geometry" />
        </mxCell>
        <mxCell id="KR1GkTAf5l48vpQYUQlL-105" value="Id" style="ellipse;whiteSpace=wrap;html=1;fillColor=#e1d5e7;strokeColor=#9673a6;" parent="1" vertex="1">
          <mxGeometry x="1570" y="1200" width="60" height="40" as="geometry" />
        </mxCell>
        <mxCell id="KR1GkTAf5l48vpQYUQlL-106" value="Pa칤s" style="ellipse;whiteSpace=wrap;html=1;" parent="1" vertex="1">
          <mxGeometry x="1766" y="1200" width="60" height="40" as="geometry" />
        </mxCell>
        <mxCell id="KR1GkTAf5l48vpQYUQlL-107" value="Cp" style="ellipse;whiteSpace=wrap;html=1;" parent="1" vertex="1">
          <mxGeometry x="1826" y="1170" width="60" height="40" as="geometry" />
        </mxCell>
        <mxCell id="KR1GkTAf5l48vpQYUQlL-108" value="" style="endArrow=none;html=1;rounded=0;fontSize=8;exitX=0;exitY=1;exitDx=0;exitDy=0;" parent="1" source="KR1GkTAf5l48vpQYUQlL-104" edge="1">
          <mxGeometry width="50" height="50" relative="1" as="geometry">
            <mxPoint x="1687" y="1162.05" as="sourcePoint" />
            <mxPoint x="1616" y="1200" as="targetPoint" />
          </mxGeometry>
        </mxCell>
        <mxCell id="KR1GkTAf5l48vpQYUQlL-109" value="" style="endArrow=none;html=1;rounded=0;fontSize=8;exitX=0.25;exitY=1;exitDx=0;exitDy=0;entryX=0.5;entryY=0;entryDx=0;entryDy=0;" parent="1" source="KR1GkTAf5l48vpQYUQlL-104" edge="1">
          <mxGeometry width="50" height="50" relative="1" as="geometry">
            <mxPoint x="1701" y="1175" as="sourcePoint" />
            <mxPoint x="1660" y="1220" as="targetPoint" />
          </mxGeometry>
        </mxCell>
        <mxCell id="KR1GkTAf5l48vpQYUQlL-110" value="" style="endArrow=none;html=1;rounded=0;fontSize=8;exitX=0.5;exitY=1;exitDx=0;exitDy=0;" parent="1" source="KR1GkTAf5l48vpQYUQlL-104" edge="1">
          <mxGeometry width="50" height="50" relative="1" as="geometry">
            <mxPoint x="1766" y="1170" as="sourcePoint" />
            <mxPoint x="1726" y="1220" as="targetPoint" />
          </mxGeometry>
        </mxCell>
        <mxCell id="KR1GkTAf5l48vpQYUQlL-111" value="" style="endArrow=none;html=1;rounded=0;fontSize=8;exitX=0.75;exitY=1;exitDx=0;exitDy=0;" parent="1" source="KR1GkTAf5l48vpQYUQlL-104" edge="1">
          <mxGeometry width="50" height="50" relative="1" as="geometry">
            <mxPoint x="1776" y="1130" as="sourcePoint" />
            <mxPoint x="1786" y="1200" as="targetPoint" />
          </mxGeometry>
        </mxCell>
        <mxCell id="KR1GkTAf5l48vpQYUQlL-112" value="" style="endArrow=none;html=1;rounded=0;fontSize=8;exitX=1;exitY=0.75;exitDx=0;exitDy=0;" parent="1" source="KR1GkTAf5l48vpQYUQlL-104" edge="1">
          <mxGeometry width="50" height="50" relative="1" as="geometry">
            <mxPoint x="1796" y="1125" as="sourcePoint" />
            <mxPoint x="1836" y="1175" as="targetPoint" />
          </mxGeometry>
        </mxCell>
        <mxCell id="KR1GkTAf5l48vpQYUQlL-113" style="edgeStyle=orthogonalEdgeStyle;rounded=0;orthogonalLoop=1;jettySize=auto;html=1;entryX=0.5;entryY=1;entryDx=0;entryDy=0;fontSize=11;endArrow=none;endFill=0;" parent="1" source="KR1GkTAf5l48vpQYUQlL-114" target="KR1GkTAf5l48vpQYUQlL-95" edge="1">
          <mxGeometry relative="1" as="geometry" />
        </mxCell>
        <mxCell id="KR1GkTAf5l48vpQYUQlL-114" value="Tener" style="rhombus;whiteSpace=wrap;html=1;fillColor=#e1d5e7;strokeColor=#9673a6;" parent="1" vertex="1">
          <mxGeometry x="1671" y="980" width="90" height="60" as="geometry" />
        </mxCell>
        <mxCell id="KR1GkTAf5l48vpQYUQlL-115" style="edgeStyle=orthogonalEdgeStyle;rounded=0;orthogonalLoop=1;jettySize=auto;html=1;entryX=0.5;entryY=1;entryDx=0;entryDy=0;fontSize=11;endArrow=none;endFill=0;" parent="1" edge="1">
          <mxGeometry relative="1" as="geometry">
            <mxPoint x="1715.29" y="1090" as="sourcePoint" />
            <mxPoint x="1715.29" y="1040" as="targetPoint" />
          </mxGeometry>
        </mxCell>
        <mxCell id="KR1GkTAf5l48vpQYUQlL-116" value="direcci칩n_general_id" style="ellipse;whiteSpace=wrap;html=1;fillColor=#d5e8d4;strokeColor=#82b366;" parent="1" vertex="1">
          <mxGeometry x="1866" y="870" width="120" height="40" as="geometry" />
        </mxCell>
        <mxCell id="KR1GkTAf5l48vpQYUQlL-117" value="" style="endArrow=none;html=1;rounded=0;fontSize=8;exitX=1;exitY=0.75;exitDx=0;exitDy=0;entryX=0;entryY=0.5;entryDx=0;entryDy=0;" parent="1" target="KR1GkTAf5l48vpQYUQlL-116" edge="1">
          <mxGeometry width="50" height="50" relative="1" as="geometry">
            <mxPoint x="1776" y="900" as="sourcePoint" />
            <mxPoint x="1846" y="916.16" as="targetPoint" />
          </mxGeometry>
        </mxCell>
        <mxCell id="KR1GkTAf5l48vpQYUQlL-118" value="" style="endArrow=none;html=1;rounded=0;fontSize=9;exitX=0.5;exitY=0;exitDx=0;exitDy=0;" parent="1" source="KR1GkTAf5l48vpQYUQlL-94" edge="1">
          <mxGeometry width="50" height="50" relative="1" as="geometry">
            <mxPoint x="1382" y="790" as="sourcePoint" />
            <mxPoint x="1432" y="740" as="targetPoint" />
            <Array as="points">
              <mxPoint x="1716" y="740" />
            </Array>
          </mxGeometry>
        </mxCell>
        <mxCell id="KR1GkTAf5l48vpQYUQlL-119" value="Ciudad" style="ellipse;whiteSpace=wrap;html=1;" parent="1" vertex="1">
          <mxGeometry x="1630" y="1220" width="60" height="40" as="geometry" />
        </mxCell>
        <mxCell id="KR1GkTAf5l48vpQYUQlL-120" value="Estado" style="ellipse;whiteSpace=wrap;html=1;" parent="1" vertex="1">
          <mxGeometry x="1701" y="1220" width="60" height="40" as="geometry" />
        </mxCell>
        <mxCell id="KR1GkTAf5l48vpQYUQlL-134" style="edgeStyle=orthogonalEdgeStyle;rounded=0;orthogonalLoop=1;jettySize=auto;html=1;fontSize=11;endArrow=none;endFill=0;" parent="1" source="KR1GkTAf5l48vpQYUQlL-135" edge="1">
          <mxGeometry relative="1" as="geometry">
            <mxPoint x="673" y="1070" as="targetPoint" />
          </mxGeometry>
        </mxCell>
        <mxCell id="KR1GkTAf5l48vpQYUQlL-135" value="Tener" style="rhombus;whiteSpace=wrap;html=1;fillColor=#e1d5e7;strokeColor=#9673a6;" parent="1" vertex="1">
          <mxGeometry x="628" y="980" width="90" height="60" as="geometry" />
        </mxCell>
        <mxCell id="KR1GkTAf5l48vpQYUQlL-136" value="Direcci칩n" style="rounded=0;whiteSpace=wrap;html=1;fillColor=#dae8fc;strokeColor=#6c8ebf;" parent="1" vertex="1">
          <mxGeometry x="613" y="1070" width="120" height="60" as="geometry" />
        </mxCell>
        <mxCell id="KR1GkTAf5l48vpQYUQlL-137" value="Id" style="ellipse;whiteSpace=wrap;html=1;fillColor=#e1d5e7;strokeColor=#9673a6;" parent="1" vertex="1">
          <mxGeometry x="467" y="1090" width="60" height="40" as="geometry" />
        </mxCell>
        <mxCell id="KR1GkTAf5l48vpQYUQlL-138" value="Calle" style="ellipse;whiteSpace=wrap;html=1;" parent="1" vertex="1">
          <mxGeometry x="483" y="1140" width="60" height="40" as="geometry" />
        </mxCell>
        <mxCell id="KR1GkTAf5l48vpQYUQlL-139" value="n칰mero" style="ellipse;whiteSpace=wrap;html=1;" parent="1" vertex="1">
          <mxGeometry x="753" y="1160" width="60" height="40" as="geometry" />
        </mxCell>
        <mxCell id="KR1GkTAf5l48vpQYUQlL-140" value="colonia" style="ellipse;whiteSpace=wrap;html=1;" parent="1" vertex="1">
          <mxGeometry x="803" y="1120" width="60" height="40" as="geometry" />
        </mxCell>
        <mxCell id="KR1GkTAf5l48vpQYUQlL-141" value="" style="endArrow=none;html=1;rounded=0;fontSize=8;entryX=1;entryY=0.5;entryDx=0;entryDy=0;" parent="1" source="KR1GkTAf5l48vpQYUQlL-136" edge="1">
          <mxGeometry width="50" height="50" relative="1" as="geometry">
            <mxPoint x="577" y="1115" as="sourcePoint" />
            <mxPoint x="527" y="1105" as="targetPoint" />
          </mxGeometry>
        </mxCell>
        <mxCell id="KR1GkTAf5l48vpQYUQlL-142" value="" style="endArrow=none;html=1;rounded=0;fontSize=8;entryX=1;entryY=0.5;entryDx=0;entryDy=0;exitX=0;exitY=0.75;exitDx=0;exitDy=0;" parent="1" source="KR1GkTAf5l48vpQYUQlL-136" edge="1">
          <mxGeometry width="50" height="50" relative="1" as="geometry">
            <mxPoint x="628" y="1150.0047945205479" as="sourcePoint" />
            <mxPoint x="542" y="1152.95" as="targetPoint" />
          </mxGeometry>
        </mxCell>
        <mxCell id="KR1GkTAf5l48vpQYUQlL-143" value="" style="endArrow=none;html=1;rounded=0;fontSize=8;exitX=1;exitY=1;exitDx=0;exitDy=0;entryX=0;entryY=0;entryDx=0;entryDy=0;" parent="1" source="KR1GkTAf5l48vpQYUQlL-136" target="KR1GkTAf5l48vpQYUQlL-139" edge="1">
          <mxGeometry width="50" height="50" relative="1" as="geometry">
            <mxPoint x="753" y="1105" as="sourcePoint" />
            <mxPoint x="793" y="1155" as="targetPoint" />
          </mxGeometry>
        </mxCell>
        <mxCell id="KR1GkTAf5l48vpQYUQlL-144" value="" style="endArrow=none;html=1;rounded=0;fontSize=8;exitX=1;exitY=0.75;exitDx=0;exitDy=0;entryX=0;entryY=0.279;entryDx=0;entryDy=0;entryPerimeter=0;" parent="1" source="KR1GkTAf5l48vpQYUQlL-136" target="KR1GkTAf5l48vpQYUQlL-140" edge="1">
          <mxGeometry width="50" height="50" relative="1" as="geometry">
            <mxPoint x="773" y="1070" as="sourcePoint" />
            <mxPoint x="813" y="1120" as="targetPoint" />
          </mxGeometry>
        </mxCell>
        <mxCell id="KR1GkTAf5l48vpQYUQlL-145" value="Direcci칩n Primaria" style="rounded=0;whiteSpace=wrap;html=1;fillColor=#dae8fc;strokeColor=#6c8ebf;" parent="1" vertex="1">
          <mxGeometry x="613" y="1290" width="120" height="60" as="geometry" />
        </mxCell>
        <mxCell id="KR1GkTAf5l48vpQYUQlL-146" value="Id" style="ellipse;whiteSpace=wrap;html=1;fillColor=#e1d5e7;strokeColor=#9673a6;" parent="1" vertex="1">
          <mxGeometry x="527" y="1400" width="60" height="40" as="geometry" />
        </mxCell>
        <mxCell id="KR1GkTAf5l48vpQYUQlL-147" value="Pa칤s" style="ellipse;whiteSpace=wrap;html=1;" parent="1" vertex="1">
          <mxGeometry x="723" y="1400" width="60" height="40" as="geometry" />
        </mxCell>
        <mxCell id="KR1GkTAf5l48vpQYUQlL-148" value="Cp" style="ellipse;whiteSpace=wrap;html=1;" parent="1" vertex="1">
          <mxGeometry x="783" y="1370" width="60" height="40" as="geometry" />
        </mxCell>
        <mxCell id="KR1GkTAf5l48vpQYUQlL-149" value="" style="endArrow=none;html=1;rounded=0;fontSize=8;exitX=0;exitY=1;exitDx=0;exitDy=0;" parent="1" source="KR1GkTAf5l48vpQYUQlL-145" edge="1">
          <mxGeometry width="50" height="50" relative="1" as="geometry">
            <mxPoint x="644" y="1362.05" as="sourcePoint" />
            <mxPoint x="573" y="1400" as="targetPoint" />
          </mxGeometry>
        </mxCell>
        <mxCell id="KR1GkTAf5l48vpQYUQlL-150" value="" style="endArrow=none;html=1;rounded=0;fontSize=8;exitX=0.25;exitY=1;exitDx=0;exitDy=0;entryX=0.5;entryY=0;entryDx=0;entryDy=0;" parent="1" source="KR1GkTAf5l48vpQYUQlL-145" edge="1">
          <mxGeometry width="50" height="50" relative="1" as="geometry">
            <mxPoint x="658" y="1375" as="sourcePoint" />
            <mxPoint x="617" y="1420" as="targetPoint" />
          </mxGeometry>
        </mxCell>
        <mxCell id="KR1GkTAf5l48vpQYUQlL-151" value="" style="endArrow=none;html=1;rounded=0;fontSize=8;exitX=0.5;exitY=1;exitDx=0;exitDy=0;" parent="1" source="KR1GkTAf5l48vpQYUQlL-145" edge="1">
          <mxGeometry width="50" height="50" relative="1" as="geometry">
            <mxPoint x="723" y="1370" as="sourcePoint" />
            <mxPoint x="683" y="1420" as="targetPoint" />
          </mxGeometry>
        </mxCell>
        <mxCell id="KR1GkTAf5l48vpQYUQlL-152" value="" style="endArrow=none;html=1;rounded=0;fontSize=8;exitX=0.75;exitY=1;exitDx=0;exitDy=0;" parent="1" source="KR1GkTAf5l48vpQYUQlL-145" edge="1">
          <mxGeometry width="50" height="50" relative="1" as="geometry">
            <mxPoint x="733" y="1330" as="sourcePoint" />
            <mxPoint x="743" y="1400" as="targetPoint" />
          </mxGeometry>
        </mxCell>
        <mxCell id="KR1GkTAf5l48vpQYUQlL-153" value="" style="endArrow=none;html=1;rounded=0;fontSize=8;exitX=1;exitY=0.75;exitDx=0;exitDy=0;" parent="1" source="KR1GkTAf5l48vpQYUQlL-145" edge="1">
          <mxGeometry width="50" height="50" relative="1" as="geometry">
            <mxPoint x="753" y="1325" as="sourcePoint" />
            <mxPoint x="793" y="1375" as="targetPoint" />
          </mxGeometry>
        </mxCell>
        <mxCell id="KR1GkTAf5l48vpQYUQlL-154" style="edgeStyle=orthogonalEdgeStyle;rounded=0;orthogonalLoop=1;jettySize=auto;html=1;entryX=0.5;entryY=1;entryDx=0;entryDy=0;fontSize=11;endArrow=none;endFill=0;" parent="1" source="KR1GkTAf5l48vpQYUQlL-155" target="KR1GkTAf5l48vpQYUQlL-136" edge="1">
          <mxGeometry relative="1" as="geometry" />
        </mxCell>
        <mxCell id="KR1GkTAf5l48vpQYUQlL-155" value="Tener" style="rhombus;whiteSpace=wrap;html=1;fillColor=#e1d5e7;strokeColor=#9673a6;" parent="1" vertex="1">
          <mxGeometry x="628" y="1180" width="90" height="60" as="geometry" />
        </mxCell>
        <mxCell id="KR1GkTAf5l48vpQYUQlL-156" style="edgeStyle=orthogonalEdgeStyle;rounded=0;orthogonalLoop=1;jettySize=auto;html=1;entryX=0.5;entryY=1;entryDx=0;entryDy=0;fontSize=11;endArrow=none;endFill=0;" parent="1" edge="1">
          <mxGeometry relative="1" as="geometry">
            <mxPoint x="672.29" y="1290" as="sourcePoint" />
            <mxPoint x="672.29" y="1240" as="targetPoint" />
          </mxGeometry>
        </mxCell>
        <mxCell id="KR1GkTAf5l48vpQYUQlL-157" value="direcci칩n_general_id" style="ellipse;whiteSpace=wrap;html=1;fillColor=#d5e8d4;strokeColor=#82b366;" parent="1" vertex="1">
          <mxGeometry x="823" y="1070" width="120" height="40" as="geometry" />
        </mxCell>
        <mxCell id="KR1GkTAf5l48vpQYUQlL-158" value="" style="endArrow=none;html=1;rounded=0;fontSize=8;exitX=1;exitY=0.75;exitDx=0;exitDy=0;entryX=0;entryY=0.5;entryDx=0;entryDy=0;" parent="1" target="KR1GkTAf5l48vpQYUQlL-157" edge="1">
          <mxGeometry width="50" height="50" relative="1" as="geometry">
            <mxPoint x="733" y="1100" as="sourcePoint" />
            <mxPoint x="803" y="1116.1599999999999" as="targetPoint" />
          </mxGeometry>
        </mxCell>
        <mxCell id="KR1GkTAf5l48vpQYUQlL-159" value="Ciudad" style="ellipse;whiteSpace=wrap;html=1;" parent="1" vertex="1">
          <mxGeometry x="587" y="1420" width="60" height="40" as="geometry" />
        </mxCell>
        <mxCell id="KR1GkTAf5l48vpQYUQlL-160" value="Estado" style="ellipse;whiteSpace=wrap;html=1;" parent="1" vertex="1">
          <mxGeometry x="658" y="1420" width="60" height="40" as="geometry" />
        </mxCell>
        <mxCell id="KR1GkTAf5l48vpQYUQlL-161" value="" style="endArrow=none;html=1;rounded=0;fontSize=9;exitX=0.5;exitY=0;exitDx=0;exitDy=0;" parent="1" source="KR1GkTAf5l48vpQYUQlL-135" edge="1">
          <mxGeometry width="50" height="50" relative="1" as="geometry">
            <mxPoint x="823" y="813" as="sourcePoint" />
            <mxPoint x="873" y="763" as="targetPoint" />
            <Array as="points">
              <mxPoint x="870" y="980" />
            </Array>
          </mxGeometry>
        </mxCell>
        <mxCell id="KR1GkTAf5l48vpQYUQlL-162" value="Fecha Nacimiento" style="rounded=0;whiteSpace=wrap;html=1;fillColor=#dae8fc;strokeColor=#6c8ebf;" parent="1" vertex="1">
          <mxGeometry x="426" y="903" width="120" height="60" as="geometry" />
        </mxCell>
        <mxCell id="KR1GkTAf5l48vpQYUQlL-163" value="Id" style="ellipse;whiteSpace=wrap;html=1;fillColor=#e1d5e7;strokeColor=#9673a6;" parent="1" vertex="1">
          <mxGeometry x="320" y="963" width="60" height="40" as="geometry" />
        </mxCell>
        <mxCell id="KR1GkTAf5l48vpQYUQlL-164" value="A침o" style="ellipse;whiteSpace=wrap;html=1;" parent="1" vertex="1">
          <mxGeometry x="527" y="990" width="60" height="40" as="geometry" />
        </mxCell>
        <mxCell id="KR1GkTAf5l48vpQYUQlL-166" value="" style="endArrow=none;html=1;rounded=0;fontSize=8;exitX=0;exitY=1;exitDx=0;exitDy=0;entryX=1;entryY=0.5;entryDx=0;entryDy=0;" parent="1" source="KR1GkTAf5l48vpQYUQlL-162" target="KR1GkTAf5l48vpQYUQlL-163" edge="1">
          <mxGeometry width="50" height="50" relative="1" as="geometry">
            <mxPoint x="457" y="975.05" as="sourcePoint" />
            <mxPoint x="386" y="1013" as="targetPoint" />
          </mxGeometry>
        </mxCell>
        <mxCell id="KR1GkTAf5l48vpQYUQlL-167" value="" style="endArrow=none;html=1;rounded=0;fontSize=8;exitX=0.25;exitY=1;exitDx=0;exitDy=0;entryX=0.704;entryY=0.019;entryDx=0;entryDy=0;entryPerimeter=0;" parent="1" source="KR1GkTAf5l48vpQYUQlL-162" target="KR1GkTAf5l48vpQYUQlL-173" edge="1">
          <mxGeometry width="50" height="50" relative="1" as="geometry">
            <mxPoint x="471" y="988" as="sourcePoint" />
            <mxPoint x="430" y="1033" as="targetPoint" />
          </mxGeometry>
        </mxCell>
        <mxCell id="KR1GkTAf5l48vpQYUQlL-168" value="" style="endArrow=none;html=1;rounded=0;fontSize=8;exitX=0.5;exitY=1;exitDx=0;exitDy=0;" parent="1" source="KR1GkTAf5l48vpQYUQlL-162" target="KR1GkTAf5l48vpQYUQlL-174" edge="1">
          <mxGeometry width="50" height="50" relative="1" as="geometry">
            <mxPoint x="536" y="983" as="sourcePoint" />
            <mxPoint x="496" y="1033" as="targetPoint" />
          </mxGeometry>
        </mxCell>
        <mxCell id="KR1GkTAf5l48vpQYUQlL-169" value="" style="endArrow=none;html=1;rounded=0;fontSize=8;exitX=0.75;exitY=1;exitDx=0;exitDy=0;entryX=0;entryY=0;entryDx=0;entryDy=0;" parent="1" source="KR1GkTAf5l48vpQYUQlL-162" target="KR1GkTAf5l48vpQYUQlL-164" edge="1">
          <mxGeometry width="50" height="50" relative="1" as="geometry">
            <mxPoint x="546" y="943" as="sourcePoint" />
            <mxPoint x="556" y="1013" as="targetPoint" />
          </mxGeometry>
        </mxCell>
        <mxCell id="KR1GkTAf5l48vpQYUQlL-171" value="Tener" style="rhombus;whiteSpace=wrap;html=1;fillColor=#e1d5e7;strokeColor=#9673a6;" parent="1" vertex="1">
          <mxGeometry x="445" y="810" width="90" height="60" as="geometry" />
        </mxCell>
        <mxCell id="KR1GkTAf5l48vpQYUQlL-172" style="edgeStyle=orthogonalEdgeStyle;rounded=0;orthogonalLoop=1;jettySize=auto;html=1;entryX=0.5;entryY=1;entryDx=0;entryDy=0;fontSize=11;endArrow=none;endFill=0;exitX=0.5;exitY=0;exitDx=0;exitDy=0;" parent="1" source="KR1GkTAf5l48vpQYUQlL-162" target="KR1GkTAf5l48vpQYUQlL-171" edge="1">
          <mxGeometry relative="1" as="geometry">
            <mxPoint x="485.28999999999996" y="903" as="sourcePoint" />
            <mxPoint x="485.28999999999996" y="853" as="targetPoint" />
          </mxGeometry>
        </mxCell>
        <mxCell id="KR1GkTAf5l48vpQYUQlL-173" value="D칤a" style="ellipse;whiteSpace=wrap;html=1;" parent="1" vertex="1">
          <mxGeometry x="390" y="998" width="60" height="40" as="geometry" />
        </mxCell>
        <mxCell id="KR1GkTAf5l48vpQYUQlL-174" value="Mes" style="ellipse;whiteSpace=wrap;html=1;" parent="1" vertex="1">
          <mxGeometry x="460" y="1003" width="60" height="40" as="geometry" />
        </mxCell>
        <mxCell id="KR1GkTAf5l48vpQYUQlL-178" value="" style="endArrow=none;html=1;rounded=0;fontSize=9;exitX=0.5;exitY=0;exitDx=0;exitDy=0;" parent="1" source="KR1GkTAf5l48vpQYUQlL-171" edge="1">
          <mxGeometry width="50" height="50" relative="1" as="geometry">
            <mxPoint x="720" y="840" as="sourcePoint" />
            <mxPoint x="870" y="756" as="targetPoint" />
            <Array as="points">
              <mxPoint x="850" y="810" />
              <mxPoint x="850" y="756" />
            </Array>
          </mxGeometry>
        </mxCell>
        <mxCell id="KR1GkTAf5l48vpQYUQlL-190" value="Tener" style="rhombus;whiteSpace=wrap;html=1;fillColor=#e1d5e7;strokeColor=#9673a6;" parent="1" vertex="1">
          <mxGeometry x="523" y="644" width="90" height="60" as="geometry" />
        </mxCell>
        <mxCell id="KR1GkTAf5l48vpQYUQlL-191" value="Fecha Inscripci칩n" style="rounded=0;whiteSpace=wrap;html=1;fillColor=#dae8fc;strokeColor=#6c8ebf;" parent="1" vertex="1">
          <mxGeometry x="508" y="543" width="120" height="60" as="geometry" />
        </mxCell>
        <mxCell id="KR1GkTAf5l48vpQYUQlL-192" style="edgeStyle=orthogonalEdgeStyle;rounded=0;orthogonalLoop=1;jettySize=auto;html=1;fontSize=9;endArrow=none;endFill=0;entryX=0.5;entryY=0;entryDx=0;entryDy=0;" parent="1" target="KR1GkTAf5l48vpQYUQlL-190" edge="1">
          <mxGeometry relative="1" as="geometry">
            <mxPoint x="567.5" y="603" as="sourcePoint" />
            <mxPoint x="568" y="650" as="targetPoint" />
            <Array as="points" />
          </mxGeometry>
        </mxCell>
        <mxCell id="KR1GkTAf5l48vpQYUQlL-193" value="D칤a" style="ellipse;whiteSpace=wrap;html=1;" parent="1" vertex="1">
          <mxGeometry x="500" y="460" width="60" height="40" as="geometry" />
        </mxCell>
        <mxCell id="KR1GkTAf5l48vpQYUQlL-194" value="Mes" style="ellipse;whiteSpace=wrap;html=1;" parent="1" vertex="1">
          <mxGeometry x="580" y="460" width="60" height="40" as="geometry" />
        </mxCell>
        <mxCell id="KR1GkTAf5l48vpQYUQlL-195" value="A침o" style="ellipse;whiteSpace=wrap;html=1;" parent="1" vertex="1">
          <mxGeometry x="647" y="500" width="60" height="40" as="geometry" />
        </mxCell>
        <mxCell id="KR1GkTAf5l48vpQYUQlL-196" value="Id" style="ellipse;whiteSpace=wrap;html=1;fillColor=#e1d5e7;strokeColor=#9673a6;" parent="1" vertex="1">
          <mxGeometry x="426" y="500" width="60" height="40" as="geometry" />
        </mxCell>
        <mxCell id="KR1GkTAf5l48vpQYUQlL-197" value="" style="endArrow=none;html=1;rounded=0;fontSize=9;exitX=1;exitY=0.25;exitDx=0;exitDy=0;" parent="1" source="KR1GkTAf5l48vpQYUQlL-191" edge="1">
          <mxGeometry width="50" height="50" relative="1" as="geometry">
            <mxPoint x="620" y="590" as="sourcePoint" />
            <mxPoint x="670" y="540" as="targetPoint" />
          </mxGeometry>
        </mxCell>
        <mxCell id="KR1GkTAf5l48vpQYUQlL-198" value="" style="endArrow=none;html=1;rounded=0;fontSize=9;exitX=1;exitY=0.25;exitDx=0;exitDy=0;entryX=0.729;entryY=1;entryDx=0;entryDy=0;entryPerimeter=0;" parent="1" target="KR1GkTAf5l48vpQYUQlL-196" edge="1">
          <mxGeometry width="50" height="50" relative="1" as="geometry">
            <mxPoint x="508" y="558" as="sourcePoint" />
            <mxPoint x="550" y="540" as="targetPoint" />
          </mxGeometry>
        </mxCell>
        <mxCell id="KR1GkTAf5l48vpQYUQlL-199" value="" style="endArrow=none;html=1;rounded=0;fontSize=9;exitX=1;exitY=0.25;exitDx=0;exitDy=0;" parent="1" edge="1">
          <mxGeometry width="50" height="50" relative="1" as="geometry">
            <mxPoint x="546" y="543" as="sourcePoint" />
            <mxPoint x="540" y="500" as="targetPoint" />
          </mxGeometry>
        </mxCell>
        <mxCell id="KR1GkTAf5l48vpQYUQlL-200" value="" style="endArrow=none;html=1;rounded=0;fontSize=9;exitX=1;exitY=0.25;exitDx=0;exitDy=0;entryX=0.5;entryY=1;entryDx=0;entryDy=0;" parent="1" target="KR1GkTAf5l48vpQYUQlL-194" edge="1">
          <mxGeometry width="50" height="50" relative="1" as="geometry">
            <mxPoint x="593.76" y="541.72" as="sourcePoint" />
            <mxPoint x="590" y="500" as="targetPoint" />
          </mxGeometry>
        </mxCell>
        <mxCell id="KR1GkTAf5l48vpQYUQlL-203" value="" style="endArrow=none;html=1;rounded=0;fontSize=9;entryX=0;entryY=0.75;entryDx=0;entryDy=0;exitX=0.5;exitY=1;exitDx=0;exitDy=0;" parent="1" source="KR1GkTAf5l48vpQYUQlL-190" target="KR1GkTAf5l48vpQYUQlL-2" edge="1">
          <mxGeometry width="50" height="50" relative="1" as="geometry">
            <mxPoint x="628" y="780" as="sourcePoint" />
            <mxPoint x="678" y="730" as="targetPoint" />
            <Array as="points">
              <mxPoint x="568" y="780" />
              <mxPoint x="830" y="780" />
              <mxPoint x="830" y="750" />
            </Array>
          </mxGeometry>
        </mxCell>
        <mxCell id="KR1GkTAf5l48vpQYUQlL-204" value="Tener" style="rhombus;whiteSpace=wrap;html=1;fillColor=#e1d5e7;strokeColor=#9673a6;" parent="1" vertex="1">
          <mxGeometry x="1087" y="524" width="90" height="60" as="geometry" />
        </mxCell>
        <mxCell id="KR1GkTAf5l48vpQYUQlL-205" value="Medio" style="rounded=0;whiteSpace=wrap;html=1;fillColor=#dae8fc;strokeColor=#6c8ebf;" parent="1" vertex="1">
          <mxGeometry x="1072" y="423" width="120" height="60" as="geometry" />
        </mxCell>
        <mxCell id="KR1GkTAf5l48vpQYUQlL-206" style="edgeStyle=orthogonalEdgeStyle;rounded=0;orthogonalLoop=1;jettySize=auto;html=1;fontSize=9;endArrow=none;endFill=0;entryX=0.5;entryY=0;entryDx=0;entryDy=0;" parent="1" target="KR1GkTAf5l48vpQYUQlL-204" edge="1">
          <mxGeometry relative="1" as="geometry">
            <mxPoint x="1131.5" y="483" as="sourcePoint" />
            <mxPoint x="1132" y="530" as="targetPoint" />
            <Array as="points" />
          </mxGeometry>
        </mxCell>
        <mxCell id="KR1GkTAf5l48vpQYUQlL-207" value="internet" style="ellipse;whiteSpace=wrap;html=1;" parent="1" vertex="1">
          <mxGeometry x="1064" y="340" width="60" height="40" as="geometry" />
        </mxCell>
        <mxCell id="KR1GkTAf5l48vpQYUQlL-208" value="&lt;font style=&quot;font-size: 10px&quot;&gt;precencial_id&lt;/font&gt;" style="ellipse;whiteSpace=wrap;html=1;fillColor=#d5e8d4;strokeColor=#82b366;" parent="1" vertex="1">
          <mxGeometry x="1144" y="340" width="60" height="40" as="geometry" />
        </mxCell>
        <mxCell id="KR1GkTAf5l48vpQYUQlL-210" value="Id" style="ellipse;whiteSpace=wrap;html=1;fillColor=#e1d5e7;strokeColor=#9673a6;" parent="1" vertex="1">
          <mxGeometry x="990" y="380" width="60" height="40" as="geometry" />
        </mxCell>
        <mxCell id="KR1GkTAf5l48vpQYUQlL-212" value="" style="endArrow=none;html=1;rounded=0;fontSize=9;exitX=1;exitY=0.25;exitDx=0;exitDy=0;entryX=0.729;entryY=1;entryDx=0;entryDy=0;entryPerimeter=0;" parent="1" target="KR1GkTAf5l48vpQYUQlL-210" edge="1">
          <mxGeometry width="50" height="50" relative="1" as="geometry">
            <mxPoint x="1072" y="438" as="sourcePoint" />
            <mxPoint x="1114" y="420" as="targetPoint" />
          </mxGeometry>
        </mxCell>
        <mxCell id="KR1GkTAf5l48vpQYUQlL-213" value="" style="endArrow=none;html=1;rounded=0;fontSize=9;exitX=1;exitY=0.25;exitDx=0;exitDy=0;" parent="1" edge="1">
          <mxGeometry width="50" height="50" relative="1" as="geometry">
            <mxPoint x="1110" y="423" as="sourcePoint" />
            <mxPoint x="1104" y="380" as="targetPoint" />
          </mxGeometry>
        </mxCell>
        <mxCell id="KR1GkTAf5l48vpQYUQlL-214" value="" style="endArrow=none;html=1;rounded=0;fontSize=9;exitX=1;exitY=0.25;exitDx=0;exitDy=0;entryX=0.5;entryY=1;entryDx=0;entryDy=0;" parent="1" target="KR1GkTAf5l48vpQYUQlL-208" edge="1">
          <mxGeometry width="50" height="50" relative="1" as="geometry">
            <mxPoint x="1157.76" y="421.72" as="sourcePoint" />
            <mxPoint x="1154" y="380" as="targetPoint" />
          </mxGeometry>
        </mxCell>
        <mxCell id="KR1GkTAf5l48vpQYUQlL-215" value="" style="endArrow=none;html=1;rounded=0;fontSize=9;exitX=0.915;exitY=0.992;exitDx=0;exitDy=0;exitPerimeter=0;" parent="1" source="KR1GkTAf5l48vpQYUQlL-2" edge="1">
          <mxGeometry width="50" height="50" relative="1" as="geometry">
            <mxPoint x="1083" y="633" as="sourcePoint" />
            <mxPoint x="1133" y="583" as="targetPoint" />
            <Array as="points">
              <mxPoint x="980" y="820" />
              <mxPoint x="1133" y="820" />
            </Array>
          </mxGeometry>
        </mxCell>
        <mxCell id="KR1GkTAf5l48vpQYUQlL-216" value="Presencial" style="rounded=0;whiteSpace=wrap;html=1;fillColor=#dae8fc;strokeColor=#6c8ebf;" parent="1" vertex="1">
          <mxGeometry x="738" y="220" width="120" height="60" as="geometry" />
        </mxCell>
        <mxCell id="KR1GkTAf5l48vpQYUQlL-217" value="id" style="ellipse;whiteSpace=wrap;html=1;fillColor=#e1d5e7;strokeColor=#9673a6;" parent="1" vertex="1">
          <mxGeometry x="628" y="200" width="60" height="40" as="geometry" />
        </mxCell>
        <mxCell id="KR1GkTAf5l48vpQYUQlL-218" value="Nombre" style="ellipse;whiteSpace=wrap;html=1;" parent="1" vertex="1">
          <mxGeometry x="663" y="160" width="60" height="40" as="geometry" />
        </mxCell>
        <mxCell id="KR1GkTAf5l48vpQYUQlL-219" value="Apellido paterno" style="ellipse;whiteSpace=wrap;html=1;" parent="1" vertex="1">
          <mxGeometry x="793" y="120" width="60" height="40" as="geometry" />
        </mxCell>
        <mxCell id="KR1GkTAf5l48vpQYUQlL-222" value="" style="endArrow=none;html=1;rounded=0;fontSize=8;exitX=0.5;exitY=0;exitDx=0;exitDy=0;entryX=0.5;entryY=1;entryDx=0;entryDy=0;" parent="1" source="KR1GkTAf5l48vpQYUQlL-216" target="KR1GkTAf5l48vpQYUQlL-219" edge="1">
          <mxGeometry width="50" height="50" relative="1" as="geometry">
            <mxPoint x="798" y="210" as="sourcePoint" />
            <mxPoint x="788" y="150" as="targetPoint" />
          </mxGeometry>
        </mxCell>
        <mxCell id="KR1GkTAf5l48vpQYUQlL-223" value="" style="endArrow=none;html=1;rounded=0;fontSize=8;entryX=0.967;entryY=0.8;entryDx=0;entryDy=0;entryPerimeter=0;" parent="1" target="KR1GkTAf5l48vpQYUQlL-218" edge="1">
          <mxGeometry width="50" height="50" relative="1" as="geometry">
            <mxPoint x="749" y="220" as="sourcePoint" />
            <mxPoint x="738" y="161" as="targetPoint" />
          </mxGeometry>
        </mxCell>
        <mxCell id="KR1GkTAf5l48vpQYUQlL-224" value="" style="endArrow=none;html=1;rounded=0;fontSize=8;entryX=1;entryY=0.5;entryDx=0;entryDy=0;" parent="1" target="KR1GkTAf5l48vpQYUQlL-217" edge="1">
          <mxGeometry width="50" height="50" relative="1" as="geometry">
            <mxPoint x="738" y="230" as="sourcePoint" />
            <mxPoint x="705.02" y="192" as="targetPoint" />
          </mxGeometry>
        </mxCell>
        <mxCell id="KR1GkTAf5l48vpQYUQlL-225" value="&lt;font style=&quot;font-size: 11px&quot;&gt;Cargo&lt;/font&gt;" style="ellipse;whiteSpace=wrap;html=1;" parent="1" vertex="1">
          <mxGeometry x="860" y="143" width="60" height="40" as="geometry" />
        </mxCell>
        <mxCell id="KR1GkTAf5l48vpQYUQlL-226" value="" style="endArrow=none;html=1;rounded=0;fontSize=8;exitX=0.894;exitY=0.013;exitDx=0;exitDy=0;exitPerimeter=0;" parent="1" source="KR1GkTAf5l48vpQYUQlL-216" edge="1">
          <mxGeometry width="50" height="50" relative="1" as="geometry">
            <mxPoint x="828" y="220" as="sourcePoint" />
            <mxPoint x="868" y="177" as="targetPoint" />
          </mxGeometry>
        </mxCell>
        <mxCell id="KR1GkTAf5l48vpQYUQlL-227" value="Apellido materno" style="ellipse;whiteSpace=wrap;html=1;" parent="1" vertex="1">
          <mxGeometry x="718" y="120" width="60" height="40" as="geometry" />
        </mxCell>
        <mxCell id="KR1GkTAf5l48vpQYUQlL-228" value="" style="endArrow=none;html=1;rounded=0;fontSize=8;exitX=0.25;exitY=0;exitDx=0;exitDy=0;entryX=0.696;entryY=1;entryDx=0;entryDy=0;entryPerimeter=0;" parent="1" source="KR1GkTAf5l48vpQYUQlL-216" target="KR1GkTAf5l48vpQYUQlL-227" edge="1">
          <mxGeometry width="50" height="50" relative="1" as="geometry">
            <mxPoint x="758" y="220" as="sourcePoint" />
            <mxPoint x="744" y="150" as="targetPoint" />
          </mxGeometry>
        </mxCell>
        <mxCell id="KR1GkTAf5l48vpQYUQlL-229" value="Tener" style="rhombus;whiteSpace=wrap;html=1;fillColor=#e1d5e7;strokeColor=#9673a6;" parent="1" vertex="1">
          <mxGeometry x="757" y="340" width="90" height="60" as="geometry" />
        </mxCell>
        <mxCell id="KR1GkTAf5l48vpQYUQlL-232" style="edgeStyle=orthogonalEdgeStyle;rounded=0;orthogonalLoop=1;jettySize=auto;html=1;entryX=0.5;entryY=0;entryDx=0;entryDy=0;fontSize=9;endArrow=none;endFill=0;" parent="1" edge="1">
          <mxGeometry relative="1" as="geometry">
            <mxPoint x="801.5" y="280" as="sourcePoint" />
            <mxPoint x="801.5" y="340" as="targetPoint" />
          </mxGeometry>
        </mxCell>
        <mxCell id="KR1GkTAf5l48vpQYUQlL-233" value="" style="endArrow=none;html=1;rounded=0;fontSize=10;exitX=-0.008;exitY=0.617;exitDx=0;exitDy=0;exitPerimeter=0;" parent="1" source="KR1GkTAf5l48vpQYUQlL-205" edge="1">
          <mxGeometry width="50" height="50" relative="1" as="geometry">
            <mxPoint x="753" y="450" as="sourcePoint" />
            <mxPoint x="800" y="400" as="targetPoint" />
            <Array as="points">
              <mxPoint x="800" y="460" />
            </Array>
          </mxGeometry>
        </mxCell>
      </root>
    </mxGraphModel>
  </diagram>
</mxfile>
